<svg xmlns="http://www.w3.org/2000/svg" xmlns:xlink="http://www.w3.org/1999/xlink" width="400" zoomAndPan="magnify" viewBox="0 0 300 52.499999" height="70" preserveAspectRatio="xMidYMid meet" version="1.0"><defs><g/><clipPath id="41e6874115"><path d="M 9 14 L 53.03125 14 L 53.03125 51.617188 L 9 51.617188 Z M 9 14 " clip-rule="nonzero"/></clipPath><clipPath id="4def10a42f"><path d="M 1.414062 0 L 45 0 L 45 37 L 1.414062 37 Z M 1.414062 0 " clip-rule="nonzero"/></clipPath></defs><g clip-path="url(#41e6874115)"><path fill="#fbb040" d="M 50.585938 14.84375 C 50.730469 15.136719 50.867188 15.457031 51 15.765625 C 51.808594 17.679688 52.378906 19.664062 52.703125 21.695312 C 52.921875 23.046875 53.027344 24.421875 53.027344 25.808594 C 53.027344 29.292969 52.347656 32.671875 51 35.855469 C 49.699219 38.929688 47.839844 41.6875 45.46875 44.058594 C 43.101562 46.425781 40.34375 48.289062 37.269531 49.585938 C 34.085938 50.933594 30.707031 51.617188 27.222656 51.617188 C 23.742188 51.617188 20.363281 50.941406 17.179688 49.59375 C 14.417969 48.425781 11.90625 46.820312 9.707031 44.777344 L 27.222656 44.777344 C 37.671875 44.777344 46.171875 36.257812 46.171875 25.8125 C 46.171875 24.398438 46.015625 23.015625 45.722656 21.683594 L 27.226562 21.683594 L 27.226562 21.695312 C 24.921875 21.695312 23.085938 23.5625 23.085938 25.835938 C 23.085938 28.113281 24.941406 29.976562 27.222656 29.976562 L 37.410156 29.976562 C 36.867188 31.3125 36.050781 32.542969 34.992188 33.601562 C 32.917969 35.675781 30.15625 36.804688 27.222656 36.804688 C 24.289062 36.804688 21.527344 35.664062 19.453125 33.589844 C 17.375 31.519531 16.230469 28.757812 16.230469 25.824219 C 16.230469 22.886719 17.375 20.128906 19.453125 18.054688 C 21.53125 15.980469 24.289062 14.84375 27.226562 14.84375 Z M 50.585938 14.84375 " fill-opacity="1" fill-rule="nonzero"/></g><g clip-path="url(#4def10a42f)"><path fill="#00aeef" d="M 1.421875 25.8125 C 1.421875 22.328125 2.101562 18.945312 3.449219 15.761719 C 4.75 12.691406 6.609375 9.929688 8.976562 7.5625 C 11.347656 5.191406 14.105469 3.332031 17.179688 2.03125 C 20.363281 0.683594 23.742188 0 27.226562 0 C 30.707031 0 34.085938 0.679688 37.269531 2.023438 C 40.03125 3.191406 42.542969 4.796875 44.742188 6.839844 L 27.226562 6.839844 C 16.777344 6.839844 8.277344 15.355469 8.277344 25.804688 C 8.277344 29.902344 9.582031 33.6875 11.800781 36.816406 L 3.875 36.816406 C 3.726562 36.484375 3.585938 36.179688 3.449219 35.859375 C 2.101562 32.675781 1.421875 29.292969 1.421875 25.8125 Z M 1.421875 25.8125 " fill-opacity="1" fill-rule="nonzero"/></g><g fill="#00aeef" fill-opacity="1"><g transform="translate(64.50377, 35.872185)"><g><path d="M 20.84375 -4.984375 C 20.132812 -3.296875 19.035156 -1.972656 17.546875 -1.015625 C 16.066406 -0.0664062 14.179688 0.40625 11.890625 0.40625 C 10.253906 0.40625 8.816406 0.15625 7.578125 -0.34375 C 6.335938 -0.851562 5.304688 -1.578125 4.484375 -2.515625 C 3.671875 -3.453125 3.0625 -4.570312 2.65625 -5.875 C 2.25 -7.1875 2.046875 -8.632812 2.046875 -10.21875 C 2.046875 -11.820312 2.25 -13.269531 2.65625 -14.5625 C 3.0625 -15.863281 3.671875 -16.984375 4.484375 -17.921875 C 5.304688 -18.859375 6.335938 -19.578125 7.578125 -20.078125 C 8.816406 -20.585938 10.253906 -20.84375 11.890625 -20.84375 C 14.015625 -20.84375 15.800781 -20.429688 17.25 -19.609375 C 18.695312 -18.796875 19.800781 -17.65625 20.5625 -16.1875 L 16.3125 -13.578125 C 15.820312 -14.609375 15.191406 -15.359375 14.421875 -15.828125 C 13.660156 -16.304688 12.816406 -16.546875 11.890625 -16.546875 C 10.203125 -16.546875 8.957031 -15.972656 8.15625 -14.828125 C 7.351562 -13.691406 6.953125 -12.15625 6.953125 -10.21875 C 6.953125 -8.28125 7.351562 -6.738281 8.15625 -5.59375 C 8.957031 -4.457031 10.203125 -3.890625 11.890625 -3.890625 C 12.847656 -3.890625 13.722656 -4.132812 14.515625 -4.625 C 15.304688 -5.113281 15.914062 -5.914062 16.34375 -7.03125 Z M 20.84375 -4.984375 "/></g></g></g><g fill="#00aeef" fill-opacity="1"><g transform="translate(85.959331, 35.872185)"><g><path d="M 11.890625 0.40625 C 10.253906 0.40625 8.816406 0.15625 7.578125 -0.34375 C 6.335938 -0.851562 5.304688 -1.578125 4.484375 -2.515625 C 3.671875 -3.453125 3.0625 -4.570312 2.65625 -5.875 C 2.25 -7.1875 2.046875 -8.632812 2.046875 -10.21875 C 2.046875 -11.820312 2.25 -13.269531 2.65625 -14.5625 C 3.0625 -15.863281 3.671875 -16.984375 4.484375 -17.921875 C 5.304688 -18.859375 6.335938 -19.578125 7.578125 -20.078125 C 8.816406 -20.585938 10.253906 -20.84375 11.890625 -20.84375 C 13.523438 -20.84375 14.960938 -20.585938 16.203125 -20.078125 C 17.441406 -19.578125 18.46875 -18.859375 19.28125 -17.921875 C 20.101562 -16.984375 20.71875 -15.863281 21.125 -14.5625 C 21.539062 -13.269531 21.75 -11.820312 21.75 -10.21875 C 21.75 -8.632812 21.539062 -7.1875 21.125 -5.875 C 20.71875 -4.570312 20.101562 -3.453125 19.28125 -2.515625 C 18.46875 -1.578125 17.441406 -0.851562 16.203125 -0.34375 C 14.960938 0.15625 13.523438 0.40625 11.890625 0.40625 Z M 11.890625 -16.546875 C 10.203125 -16.546875 8.957031 -15.972656 8.15625 -14.828125 C 7.351562 -13.691406 6.953125 -12.15625 6.953125 -10.21875 C 6.953125 -8.28125 7.351562 -6.738281 8.15625 -5.59375 C 8.957031 -4.457031 10.203125 -3.890625 11.890625 -3.890625 C 13.578125 -3.890625 14.820312 -4.457031 15.625 -5.59375 C 16.4375 -6.738281 16.84375 -8.28125 16.84375 -10.21875 C 16.84375 -12.15625 16.4375 -13.691406 15.625 -14.828125 C 14.820312 -15.972656 13.578125 -16.546875 11.890625 -16.546875 Z M 11.890625 -16.546875 "/></g></g></g><g fill="#00aeef" fill-opacity="1"><g transform="translate(109.74435, 35.872185)"><g><path d="M 15.078125 -2.53125 C 14.484375 -1.582031 13.707031 -0.851562 12.75 -0.34375 C 11.800781 0.15625 10.726562 0.40625 9.53125 0.40625 C 7.394531 0.40625 5.710938 -0.179688 4.484375 -1.359375 C 3.265625 -2.546875 2.65625 -4.503906 2.65625 -7.234375 L 2.65625 -20.4375 L 7.5625 -20.4375 L 7.5625 -7.4375 C 7.5625 -6.207031 7.847656 -5.304688 8.421875 -4.734375 C 8.992188 -4.171875 9.753906 -3.890625 10.703125 -3.890625 C 12.015625 -3.890625 13.070312 -4.453125 13.875 -5.578125 C 14.675781 -6.710938 15.078125 -8.328125 15.078125 -10.421875 L 15.078125 -20.4375 L 19.984375 -20.4375 L 19.984375 -7.4375 C 19.984375 -6.050781 20.015625 -4.769531 20.078125 -3.59375 C 20.148438 -2.425781 20.269531 -1.226562 20.4375 0 L 15.578125 0 C 15.273438 -0.8125 15.109375 -1.65625 15.078125 -2.53125 Z M 15.078125 -2.53125 "/></g></g></g><g fill="#00aeef" fill-opacity="1"><g transform="translate(132.385067, 35.872185)"><g><path d="M 13.203125 -15.734375 C 12.378906 -16.003906 11.644531 -16.140625 11 -16.140625 C 9.6875 -16.140625 8.785156 -15.65625 8.296875 -14.6875 C 7.804688 -13.726562 7.5625 -12.390625 7.5625 -10.671875 L 7.5625 0 L 2.65625 0 L 2.65625 -20.4375 L 7.5625 -20.4375 L 7.5625 -18.359375 C 8.082031 -19.222656 8.6875 -19.851562 9.375 -20.25 C 10.070312 -20.644531 10.859375 -20.84375 11.734375 -20.84375 C 12.492188 -20.84375 13.269531 -20.707031 14.0625 -20.4375 Z M 13.203125 -15.734375 "/></g></g></g><g fill="#00aeef" fill-opacity="1"><g transform="translate(147.260925, 35.872185)"><g><path d="M 15.453125 -15 C 14.578125 -15.519531 13.722656 -15.90625 12.890625 -16.15625 C 12.066406 -16.414062 11.175781 -16.546875 10.21875 -16.546875 C 9.425781 -16.546875 8.722656 -16.441406 8.109375 -16.234375 C 7.492188 -16.035156 7.1875 -15.640625 7.1875 -15.046875 C 7.1875 -14.421875 7.453125 -13.945312 7.984375 -13.625 C 8.515625 -13.3125 9.175781 -13.039062 9.96875 -12.8125 C 10.757812 -12.582031 11.609375 -12.347656 12.515625 -12.109375 C 13.429688 -11.878906 14.285156 -11.523438 15.078125 -11.046875 C 15.867188 -10.578125 16.53125 -9.945312 17.0625 -9.15625 C 17.59375 -8.363281 17.859375 -7.285156 17.859375 -5.921875 C 17.859375 -4.804688 17.640625 -3.847656 17.203125 -3.046875 C 16.765625 -2.242188 16.164062 -1.585938 15.40625 -1.078125 C 14.644531 -0.578125 13.765625 -0.207031 12.765625 0.03125 C 11.773438 0.28125 10.722656 0.40625 9.609375 0.40625 C 8.785156 0.40625 8.023438 0.359375 7.328125 0.265625 C 6.640625 0.171875 5.96875 0.015625 5.3125 -0.203125 C 4.65625 -0.421875 4.015625 -0.691406 3.390625 -1.015625 C 2.765625 -1.347656 2.113281 -1.742188 1.4375 -2.203125 L 3.890625 -6.125 C 4.867188 -5.414062 5.832031 -4.863281 6.78125 -4.46875 C 7.738281 -4.082031 8.722656 -3.890625 9.734375 -3.890625 C 10.140625 -3.890625 10.53125 -3.914062 10.90625 -3.96875 C 11.289062 -4.019531 11.632812 -4.125 11.9375 -4.28125 C 12.238281 -4.445312 12.484375 -4.660156 12.671875 -4.921875 C 12.859375 -5.179688 12.953125 -5.515625 12.953125 -5.921875 C 12.953125 -6.523438 12.6875 -6.984375 12.15625 -7.296875 C 11.625 -7.609375 10.960938 -7.878906 10.171875 -8.109375 C 9.390625 -8.347656 8.539062 -8.59375 7.625 -8.84375 C 6.707031 -9.101562 5.851562 -9.476562 5.0625 -9.96875 C 4.28125 -10.457031 3.617188 -11.109375 3.078125 -11.921875 C 2.546875 -12.742188 2.28125 -13.828125 2.28125 -15.171875 C 2.28125 -16.148438 2.5 -16.992188 2.9375 -17.703125 C 3.375 -18.410156 3.957031 -19 4.6875 -19.46875 C 5.425781 -19.945312 6.273438 -20.296875 7.234375 -20.515625 C 8.191406 -20.734375 9.1875 -20.84375 10.21875 -20.84375 C 11.53125 -20.84375 12.816406 -20.6875 14.078125 -20.375 C 15.347656 -20.0625 16.457031 -19.632812 17.40625 -19.09375 Z M 15.453125 -15 "/></g></g></g><g fill="#00aeef" fill-opacity="1"><g transform="translate(166.959166, 35.872185)"><g><path d="M 20.59375 -1.59375 C 18.09375 -0.257812 15.546875 0.40625 12.953125 0.40625 C 11.378906 0.40625 9.921875 0.1875 8.578125 -0.25 C 7.242188 -0.6875 6.09375 -1.347656 5.125 -2.234375 C 4.15625 -3.117188 3.398438 -4.226562 2.859375 -5.5625 C 2.316406 -6.894531 2.046875 -8.445312 2.046875 -10.21875 C 2.046875 -11.820312 2.25 -13.269531 2.65625 -14.5625 C 3.0625 -15.863281 3.679688 -16.984375 4.515625 -17.921875 C 5.347656 -18.859375 6.375 -19.578125 7.59375 -20.078125 C 8.820312 -20.585938 10.253906 -20.84375 11.890625 -20.84375 C 13.441406 -20.84375 14.796875 -20.597656 15.953125 -20.109375 C 17.117188 -19.617188 18.082031 -18.9375 18.84375 -18.0625 C 19.601562 -17.195312 20.171875 -16.160156 20.546875 -14.953125 C 20.929688 -13.753906 21.125 -12.4375 21.125 -11 L 21.125 -8.34375 L 7.078125 -8.34375 C 7.367188 -6.757812 8.007812 -5.617188 9 -4.921875 C 10 -4.234375 11.316406 -3.890625 12.953125 -3.890625 C 13.910156 -3.890625 14.90625 -4.035156 15.9375 -4.328125 C 16.976562 -4.628906 17.988281 -5.050781 18.96875 -5.59375 Z M 11.890625 -16.546875 C 10.585938 -16.546875 9.550781 -16.195312 8.78125 -15.5 C 8.019531 -14.8125 7.488281 -13.851562 7.1875 -12.625 L 16.1875 -12.625 C 16.070312 -13.9375 15.644531 -14.914062 14.90625 -15.5625 C 14.175781 -16.21875 13.171875 -16.546875 11.890625 -16.546875 Z M 11.890625 -16.546875 "/></g></g></g><g fill="#fbb040" fill-opacity="1"><g transform="translate(190.137282, 35.872185)"><g><path d="M 26.328125 -15.65625 L 26.328125 -12.296875 C 26.328125 -10.171875 26.046875 -8.3125 25.484375 -6.71875 C 24.921875 -5.125 24.128906 -3.796875 23.109375 -2.734375 C 22.085938 -1.671875 20.851562 -0.878906 19.40625 -0.359375 C 17.96875 0.148438 16.378906 0.40625 14.640625 0.40625 C 12.921875 0.40625 11.296875 0.171875 9.765625 -0.296875 C 8.242188 -0.773438 6.910156 -1.582031 5.765625 -2.71875 C 4.617188 -3.851562 3.710938 -5.359375 3.046875 -7.234375 C 2.378906 -9.117188 2.046875 -11.460938 2.046875 -14.265625 C 2.046875 -17.066406 2.378906 -19.40625 3.046875 -21.28125 C 3.710938 -23.164062 4.617188 -24.679688 5.765625 -25.828125 C 6.910156 -26.972656 8.242188 -27.789062 9.765625 -28.28125 C 11.296875 -28.769531 12.921875 -29.015625 14.640625 -29.015625 C 15.941406 -29.015625 17.175781 -28.878906 18.34375 -28.609375 C 19.519531 -28.335938 20.59375 -27.894531 21.5625 -27.28125 C 22.53125 -26.664062 23.390625 -25.851562 24.140625 -24.84375 C 24.890625 -23.84375 25.492188 -22.59375 25.953125 -21.09375 L 21.421875 -19.625 C 21.148438 -20.601562 20.785156 -21.425781 20.328125 -22.09375 C 19.878906 -22.757812 19.363281 -23.28125 18.78125 -23.65625 C 18.195312 -24.039062 17.554688 -24.316406 16.859375 -24.484375 C 16.160156 -24.648438 15.421875 -24.734375 14.640625 -24.734375 C 13.597656 -24.734375 12.609375 -24.578125 11.671875 -24.265625 C 10.734375 -23.953125 9.914062 -23.390625 9.21875 -22.578125 C 8.519531 -21.773438 7.96875 -20.695312 7.5625 -19.34375 C 7.15625 -18 6.953125 -16.304688 6.953125 -14.265625 C 6.953125 -12.222656 7.15625 -10.523438 7.5625 -9.171875 C 7.96875 -7.828125 8.519531 -6.765625 9.21875 -5.984375 C 9.914062 -5.210938 10.734375 -4.671875 11.671875 -4.359375 C 12.609375 -4.046875 13.597656 -3.890625 14.640625 -3.890625 C 15.554688 -3.890625 16.410156 -3.992188 17.203125 -4.203125 C 17.992188 -4.421875 18.679688 -4.816406 19.265625 -5.390625 C 19.859375 -5.960938 20.335938 -6.734375 20.703125 -7.703125 C 21.066406 -8.671875 21.289062 -9.890625 21.375 -11.359375 L 13.40625 -11.359375 L 13.40625 -15.65625 Z M 26.328125 -15.65625 "/></g></g></g><g fill="#fbb040" fill-opacity="1"><g transform="translate(218.499486, 35.872185)"><g><path d="M 20.59375 -1.59375 C 18.09375 -0.257812 15.546875 0.40625 12.953125 0.40625 C 11.378906 0.40625 9.921875 0.1875 8.578125 -0.25 C 7.242188 -0.6875 6.09375 -1.347656 5.125 -2.234375 C 4.15625 -3.117188 3.398438 -4.226562 2.859375 -5.5625 C 2.316406 -6.894531 2.046875 -8.445312 2.046875 -10.21875 C 2.046875 -11.820312 2.25 -13.269531 2.65625 -14.5625 C 3.0625 -15.863281 3.679688 -16.984375 4.515625 -17.921875 C 5.347656 -18.859375 6.375 -19.578125 7.59375 -20.078125 C 8.820312 -20.585938 10.253906 -20.84375 11.890625 -20.84375 C 13.441406 -20.84375 14.796875 -20.597656 15.953125 -20.109375 C 17.117188 -19.617188 18.082031 -18.9375 18.84375 -18.0625 C 19.601562 -17.195312 20.171875 -16.160156 20.546875 -14.953125 C 20.929688 -13.753906 21.125 -12.4375 21.125 -11 L 21.125 -8.34375 L 7.078125 -8.34375 C 7.367188 -6.757812 8.007812 -5.617188 9 -4.921875 C 10 -4.234375 11.316406 -3.890625 12.953125 -3.890625 C 13.910156 -3.890625 14.90625 -4.035156 15.9375 -4.328125 C 16.976562 -4.628906 17.988281 -5.050781 18.96875 -5.59375 Z M 11.890625 -16.546875 C 10.585938 -16.546875 9.550781 -16.195312 8.78125 -15.5 C 8.019531 -14.8125 7.488281 -13.851562 7.1875 -12.625 L 16.1875 -12.625 C 16.070312 -13.9375 15.644531 -14.914062 14.90625 -15.5625 C 14.175781 -16.21875 13.171875 -16.546875 11.890625 -16.546875 Z M 11.890625 -16.546875 "/></g></g></g><g fill="#fbb040" fill-opacity="1"><g transform="translate(241.671488, 35.872185)"><g><path d="M 7.5625 0 L 2.65625 0 L 2.65625 -20.4375 L 7.5625 -20.4375 L 7.5625 -18.1875 C 8.351562 -19.082031 9.222656 -19.75 10.171875 -20.1875 C 11.128906 -20.625 12.25 -20.84375 13.53125 -20.84375 C 15.570312 -20.84375 17.15625 -20.226562 18.28125 -19 C 19.414062 -17.78125 19.984375 -15.863281 19.984375 -13.25 L 19.984375 0 L 15.078125 0 L 15.078125 -13.125 C 15.078125 -14.320312 14.773438 -15.191406 14.171875 -15.734375 C 13.578125 -16.273438 12.789062 -16.546875 11.8125 -16.546875 C 10.5625 -16.546875 9.539062 -16.015625 8.75 -14.953125 C 7.957031 -13.890625 7.5625 -12.175781 7.5625 -9.8125 Z M 7.5625 0 "/></g></g></g><g fill="#fbb040" fill-opacity="1"><g transform="translate(264.312206, 35.872185)"><g><path d="M 3.46875 -28.609375 L 8.375 -28.609375 L 8.375 -23.703125 L 3.46875 -23.703125 Z M 3.46875 -16.140625 L 1.015625 -16.140625 L 1.015625 -20.4375 L 5.921875 -20.4375 C 6.878906 -20.4375 7.523438 -20.304688 7.859375 -20.046875 C 8.203125 -19.785156 8.375 -19.207031 8.375 -18.3125 L 8.375 0 L 3.46875 0 Z M 3.46875 -16.140625 "/></g></g></g><g fill="#fbb040" fill-opacity="1"><g transform="translate(275.346494, 35.872185)"><g><path d="M 20.59375 -1.59375 C 18.09375 -0.257812 15.546875 0.40625 12.953125 0.40625 C 11.378906 0.40625 9.921875 0.1875 8.578125 -0.25 C 7.242188 -0.6875 6.09375 -1.347656 5.125 -2.234375 C 4.15625 -3.117188 3.398438 -4.226562 2.859375 -5.5625 C 2.316406 -6.894531 2.046875 -8.445312 2.046875 -10.21875 C 2.046875 -11.820312 2.25 -13.269531 2.65625 -14.5625 C 3.0625 -15.863281 3.679688 -16.984375 4.515625 -17.921875 C 5.347656 -18.859375 6.375 -19.578125 7.59375 -20.078125 C 8.820312 -20.585938 10.253906 -20.84375 11.890625 -20.84375 C 13.441406 -20.84375 14.796875 -20.597656 15.953125 -20.109375 C 17.117188 -19.617188 18.082031 -18.9375 18.84375 -18.0625 C 19.601562 -17.195312 20.171875 -16.160156 20.546875 -14.953125 C 20.929688 -13.753906 21.125 -12.4375 21.125 -11 L 21.125 -8.34375 L 7.078125 -8.34375 C 7.367188 -6.757812 8.007812 -5.617188 9 -4.921875 C 10 -4.234375 11.316406 -3.890625 12.953125 -3.890625 C 13.910156 -3.890625 14.90625 -4.035156 15.9375 -4.328125 C 16.976562 -4.628906 17.988281 -5.050781 18.96875 -5.59375 Z M 11.890625 -16.546875 C 10.585938 -16.546875 9.550781 -16.195312 8.78125 -15.5 C 8.019531 -14.8125 7.488281 -13.851562 7.1875 -12.625 L 16.1875 -12.625 C 16.070312 -13.9375 15.644531 -14.914062 14.90625 -15.5625 C 14.175781 -16.21875 13.171875 -16.546875 11.890625 -16.546875 Z M 11.890625 -16.546875 "/></g></g></g></svg>